<svg xmlns="http://www.w3.org/2000/svg" width="636.176" height="48.05" viewBox="0 0 636.176 48.05">
  <g id="Grupo_671" data-name="Grupo 671" transform="translate(-622.233 -345.207)">
    <g id="Grupo_664" data-name="Grupo 664" transform="translate(5 -16.928)">
      <text id="rEGISTR0" transform="translate(934.406 405.185)" fill="#fff" font-size="30" font-family="AkhandSoft-Bold, Akhand Soft" font-weight="700"><tspan x="-50" y="0">REGISTR0</tspan></text>
      <line id="Línea_2" data-name="Línea 2" x1="106" transform="translate(750.5 396.5)" fill="none" stroke="#fff" stroke-width="1"/>
      <line id="Línea_3" data-name="Línea 3" x1="106" transform="translate(1012.313 396.5)" fill="none" stroke="#fff" stroke-width="1"/>
    </g>
    <g id="Grupo_668" data-name="Grupo 668" transform="translate(622.232 345.207)">
      <g id="Grupo_657" data-name="Grupo 657" transform="translate(0)">
        <path id="Trazado_1685" data-name="Trazado 1685" d="M2788.449,1949.153h34.65v2.418h-33.649l-42.006,42.006h-158.88v-2.418h157.879Z" transform="translate(-2588.565 -1949.153)" fill="#1b042a"/>
      </g>
      <g id="Grupo_658" data-name="Grupo 658" transform="translate(36.894 18.642)">
        <path id="Trazado_1686" data-name="Trazado 1686" d="M2779.369,1945.526l6.836,6.838-22.569,22.571H2640.45v-9.671h119.18Z" transform="translate(-2640.45 -1945.526)" fill="#1b042a"/>
      </g>
    </g>
    <g id="Grupo_667" data-name="Grupo 667" transform="translate(1023.874 345.207)">
      <g id="Grupo_657-2" data-name="Grupo 657">
        <path id="Trazado_1685-2" data-name="Trazado 1685" d="M2623.215,1949.153h-34.65v2.418h33.649l42.006,42.006H2823.1v-2.418H2665.22Z" transform="translate(-2588.565 -1949.153)" fill="#1b042a"/>
      </g>
      <g id="Grupo_658-2" data-name="Grupo 658" transform="translate(51.885 18.642)">
        <path id="Trazado_1686-2" data-name="Trazado 1686" d="M2647.286,1945.526l-6.836,6.838,22.569,22.571h123.187v-9.671h-119.18Z" transform="translate(-2640.45 -1945.526)" fill="#1b042a"/>
      </g>
    </g>
  </g>
</svg>
